<?xml version="1.0" ?><!DOCTYPE svg  PUBLIC '-//W3C//DTD SVG 1.1//EN'  'http://www.w3.org/Graphics/SVG/1.1/DTD/svg11.dtd'><svg enable-background="new 0 0 800 800" height="800px" id="Layer_1" version="1.1" viewBox="0 0 800 800" width="800px" xml:space="preserve" xmlns="http://www.w3.org/2000/svg" xmlns:xlink="http://www.w3.org/1999/xlink"><g><path d="M756.052,159.996H43.948c-8.402,0-15.209,6.806-15.209,15.208v449.591c0,8.402,6.807,15.209,15.209,15.209   h712.104c8.395,0,15.209-6.807,15.209-15.209V175.204C771.261,166.802,764.446,159.996,756.052,159.996z M740.843,609.587H59.157   V190.413h681.686V609.587z" fill="#4D4D4D"/><path d="M399.996,573.398c8.402,0,15.208-6.807,15.208-15.209V233.969c0-8.386-6.806-15.209-15.208-15.209   c-8.394,0-15.209,6.823-15.209,15.209v324.221C384.787,566.592,391.603,573.398,399.996,573.398z" fill="#4D4D4D"/><path d="M107.126,261.076h87.908c8.402,0,15.209-6.807,15.209-15.209c0-8.385-6.807-15.209-15.209-15.209h-87.908   c-8.394,0-15.209,6.824-15.209,15.209C91.917,254.27,98.732,261.076,107.126,261.076z" fill="#4D4D4D"/><path d="M107.126,321.911h140.069c8.402,0,15.209-6.807,15.209-15.209c0-8.385-6.807-15.209-15.209-15.209H107.126   c-8.394,0-15.209,6.824-15.209,15.209C91.917,315.104,98.732,321.911,107.126,321.911z" fill="#4D4D4D"/><path d="M107.126,382.746h221.375c8.402,0,15.209-6.807,15.209-15.209c0-8.385-6.807-15.209-15.209-15.209H107.126   c-8.394,0-15.209,6.824-15.209,15.209C91.917,375.939,98.732,382.746,107.126,382.746z" fill="#4D4D4D"/><path d="M107.126,443.581h221.375c8.402,0,15.209-6.807,15.209-15.209c0-8.385-6.807-15.209-15.209-15.209H107.126   c-8.394,0-15.209,6.824-15.209,15.209C91.917,436.774,98.732,443.581,107.126,443.581z" fill="#4D4D4D"/><path d="M107.126,504.416h221.375c8.402,0,15.209-6.807,15.209-15.209c0-8.385-6.807-15.209-15.209-15.209H107.126   c-8.394,0-15.209,6.824-15.209,15.209C91.917,497.609,98.732,504.416,107.126,504.416z" fill="#4D4D4D"/><path d="M329.604,534.833h-46.042c-8.394,0-15.209,6.823-15.209,15.209c0,8.401,6.815,15.208,15.209,15.208h46.042   c8.394,0,15.209-6.807,15.209-15.208C344.813,541.656,337.998,534.833,329.604,534.833z" fill="#4D4D4D"/><path d="M616.567,354.145h95.598c8.402,0,15.209-6.807,15.209-15.209V225.957c0-8.386-6.807-15.209-15.209-15.209   h-95.598c-8.393,0-15.209,6.823-15.209,15.209v112.979C601.358,347.338,608.175,354.145,616.567,354.145z M631.776,241.165h65.181   v82.563h-65.181V241.165z" fill="#4D4D4D"/><path d="M484.493,278.321c0.628,0.034,1.273,0.052,1.935,0.052c9.064,0,21.812-2.903,34.433-15.515   c4.65-4.651,11.618-9.896,18.526-8.521c4.854,0.985,9.506,5.364,11.849,11.136c3.156,7.791,12.025,11.525,19.809,8.368   c7.791-3.157,11.525-12.035,8.367-19.809c-6.263-15.43-18.968-26.463-33.99-29.501c-9.098-1.834-27.15-2.105-46.067,16.821   c-6.866,6.857-11.788,6.704-13.358,6.603c-7.613-0.288-15.133-7.18-17.406-9.828c-5.381-6.382-14.921-7.248-21.354-1.901   c-6.468,5.381-7.35,14.954-1.979,21.422C446.929,259.65,462.206,277.303,484.493,278.321z" fill="#4D4D4D"/><path d="M488.244,330.449c11.033,0,22.423-3.888,32.616-14.071c4.65-4.651,11.602-9.896,18.526-8.521   c4.854,0.984,9.506,5.347,11.849,11.135c3.156,7.774,12.025,11.525,19.809,8.352c7.791-3.157,11.525-12.018,8.367-19.809   c-6.263-15.413-18.977-26.445-33.99-29.484c-9.098-1.85-27.15-2.088-46.067,16.821c-12.62,12.646-28.712-1.392-31.835-4.379   c-6.018-5.806-15.615-5.67-21.455,0.322c-5.864,6.026-5.737,15.65,0.271,21.506C455.935,321.69,471.677,330.449,488.244,330.449z" fill="#4D4D4D"/></g></svg>